<!--?xml version="1.0" encoding="utf-8"?-->
<!-- Generator: Adobe Illustrator 18.1.1, SVG Export Plug-In . SVG Version: 6.00 Build 0)  -->

<svg version="1.1" id="_x32_" xmlns="http://www.w3.org/2000/svg" xmlns:xlink="http://www.w3.org/1999/xlink" x="0px" y="0px" viewBox="0 0 512 512" style="width: 128px; height: 128px; opacity: 1;" xml:space="preserve">
<style type="text/css">
	.st0{fill:#4B4B4B;}
</style>
<g>
	<path class="st0" d="M256,0C114.605,0.009,0.017,114.605,0,256c0.017,141.395,114.605,255.982,256,256
		c141.395-0.018,255.982-114.605,256-256C511.982,114.605,397.395,0.009,256,0z M405.263,405.263
		C366.991,443.5,314.36,467.079,256,467.088c-58.36-0.009-110.992-23.588-149.263-61.824C68.5,366.991,44.921,314.36,44.912,256
		c0.009-58.36,23.588-110.992,61.824-149.263C145.008,68.5,197.64,44.921,256,44.912c58.36,0.009,110.991,23.588,149.263,61.824
		C443.5,145.008,467.079,197.64,467.088,256C467.079,314.36,443.5,366.991,405.263,405.263z" style="fill: rgb(3, 176, 255);"></path>
	<path class="st0" d="M277.825,257.666c-15.623-5.438-32.684,2.816-38.124,18.43c-5.438,15.623,2.816,32.692,18.43,38.122
		c15.631,5.439,32.692-2.815,38.131-18.438C301.702,280.166,293.447,263.105,277.825,257.666z" style="fill: rgb(3, 176, 255);"></path>
	<path class="st0" d="M193.71,317.158c-15.614-5.43-32.684,2.824-38.114,18.438c-5.439,15.623,2.815,32.684,18.429,38.123
		c15.623,5.438,32.684-2.816,38.124-18.439C217.588,339.666,209.334,322.597,193.71,317.158z" style="fill: rgb(3, 176, 255);"></path>
	<path class="st0" d="M179.465,248.79c5.43-15.614-2.816-32.675-18.447-38.114c-15.614-5.439-32.675,2.816-38.114,18.43
		c-5.439,15.631,2.816,32.692,18.43,38.122C156.956,272.667,174.026,264.421,179.465,248.79z" style="fill: rgb(3, 176, 255);"></path>
</g>
</svg>
